<svg width="800px" height="800px" viewBox="0 0 24 24" xmlns="http://www.w3.org/2000/svg">
<path opacity="0.1" d="M17 8C17 10.7614 14.7614 13 12 13C9.23858 13 7 10.7614 7 8C7 5.23858 9.23858 3 12 3C14.7614 3 17 5.23858 17 8Z" fill="none"/>
<path d="M17 8C17 10.7614 14.7614 13 12 13C9.23858 13 7 10.7614 7 8C7 5.23858 9.23858 3 12 3C14.7614 3 17 5.23858 17 8Z" stroke="current" stroke-width="2" fill="none"/>
<path d="M3 21C3.95728 17.9237 6.41998 17 12 17C17.58 17 20.0427 17.9237 21 21" stroke="current" stroke-width="2" stroke-linecap="round" fill="none"/>
</svg>
